<svg xmlns="http://www.w3.org/2000/svg" width="24.162" height="24.162" viewBox="0 0 24.162 24.162">
  <path id="arrows" d="M23.573,10.658,20.308,7.393,18.885,8.817l2.258,2.258H13.088V3.02l2.258,2.258L16.77,3.855,13.505.59a2.014,2.014,0,0,0-2.847,0L7.393,3.855,8.817,5.279,11.075,3.02v8.054H3.02L5.279,8.817,3.855,7.393.59,10.658a2.014,2.014,0,0,0,0,2.847L3.855,16.77l1.424-1.424L3.02,13.088h8.054v8.054L8.817,18.886,7.393,20.309l3.265,3.264a2.014,2.014,0,0,0,2.847,0l3.265-3.264-1.424-1.424-2.258,2.257V13.088h8.054l-2.258,2.258,1.424,1.424,3.265-3.265A2.014,2.014,0,0,0,23.573,10.658Z" transform="translate(0 0)"/>
</svg>
