<svg version="1.1" id="Layer_1" xmlns="http://www.w3.org/2000/svg" xmlns:xlink="http://www.w3.org/1999/xlink" x="0px" y="0px"
	 width="100%" viewBox="0 0 500 136" enable-background="new 0 0 500 136" xml:space="preserve">
<path fill="#4C6971" opacity="1.000000" stroke="none" 
	d="
M336.000000,137.000000 
	C224.000015,137.000000 112.500038,137.000000 1.000045,137.000000 
	C1.000030,91.666695 1.000030,46.333389 1.000015,1.000063 
	C167.666611,1.000042 334.333221,1.000042 500.999878,1.000021 
	C500.999908,46.333267 500.999908,91.666534 500.999939,136.999908 
	C446.166656,137.000000 391.333344,137.000000 336.000000,137.000000 
M188.546310,51.903744 
	C188.380997,51.554741 188.215668,51.205738 188.034515,50.094097 
	C188.070999,49.079079 188.107498,48.064056 188.787796,46.587852 
	C188.527863,46.087761 188.270233,45.151474 188.007706,45.150097 
	C174.438873,45.079132 160.869644,45.087574 147.171783,45.087574 
	C147.171783,48.062874 147.171783,50.526741 147.308670,53.658703 
	C148.194519,53.710800 149.080353,53.762894 150.898819,53.949863 
	C157.915497,54.003139 164.932159,54.056416 171.826782,54.614525 
	C171.540009,54.799549 171.253235,54.984570 170.043808,55.022945 
	C162.572937,55.022945 155.102066,55.022945 147.631195,55.022945 
	C147.634293,55.370785 147.637390,55.718628 147.640488,56.066467 
	C155.049942,56.066467 162.459412,56.066467 169.830490,56.586906 
	C169.538574,57.006096 169.246658,57.425282 168.475082,58.057392 
	C168.364197,58.360828 168.253311,58.664261 167.991287,59.663803 
	C165.095154,62.503227 161.984589,65.158669 159.353348,68.225380 
	C155.450226,72.774498 151.851898,77.588341 148.204773,82.351494 
	C147.368256,83.443993 146.861176,84.788742 146.057816,86.701126 
	C146.167023,88.278358 146.276230,89.855583 146.072922,91.872139 
	C146.385071,92.182137 146.697220,92.492126 147.936981,92.933968 
	C161.285263,92.888794 174.633530,92.843620 188.756805,92.558861 
	C188.498413,89.777374 188.240036,86.995880 187.057251,84.066116 
	C179.052780,84.011124 171.048294,83.956131 163.239212,83.329857 
	C163.802872,83.132881 164.366547,82.935905 165.858200,82.941658 
	C172.995224,82.941658 180.132263,82.941658 187.269287,82.941658 
	C187.265976,82.632393 187.262665,82.323128 187.259354,82.013863 
	C179.836533,82.013863 172.413696,82.013863 164.949081,81.276825 
	C166.283447,79.953308 167.727631,78.722160 168.932510,77.289726 
	C173.301056,72.096184 177.619125,66.859283 181.893356,61.587761 
	C183.621750,59.456062 185.188248,57.193092 187.112305,54.394470 
	C187.444611,53.616867 187.776917,52.839264 188.044174,52.004417 
	C188.044174,52.004417 188.057373,52.090042 188.546310,51.903744 
M425.107269,82.036255 
	C416.767151,81.981964 408.427063,81.927666 400.003876,81.903259 
	C400.003876,81.903259 400.020172,81.990028 400.002899,81.054276 
	C400.002899,69.266800 400.002899,57.479321 400.002899,45.691841 
	C399.726685,45.694641 399.450439,45.697437 399.174225,45.700237 
	C399.174225,57.795666 399.174225,69.891098 398.967102,82.466476 
	C398.678558,82.633904 398.389984,82.801323 397.990967,82.041260 
	C397.990967,69.778885 397.990967,57.516506 397.990967,43.978622 
	C394.225677,45.130322 391.183563,46.060829 387.994171,47.919662 
	C388.042694,59.615845 388.091187,71.312027 388.239746,83.706703 
	C388.554474,84.799431 388.869202,85.892159 389.037567,87.717186 
	C391.032318,89.502739 393.027069,91.288284 395.952423,92.982422 
	C407.290283,93.026413 418.628143,93.070404 429.647430,93.728775 
	C428.920654,93.917740 428.193848,94.106697 426.791107,94.471413 
	C432.637817,96.247688 432.091125,91.178322 434.727356,88.697739 
	C435.142365,87.633232 435.912018,86.570885 435.918549,85.503876 
	C436.000580,72.079758 435.972382,58.654961 435.972382,45.022076 
	C433.692657,45.022076 431.864166,45.125233 430.051727,44.998768 
	C427.066650,44.790470 425.836212,45.998417 425.953674,49.054050 
	C426.375671,60.032089 426.661499,71.015366 426.511444,82.024971 
	C426.511444,82.024971 426.042480,82.160469 425.107269,82.036255 
M385.148956,54.520947 
	C385.099304,62.669338 384.994904,70.818062 385.045197,78.965836 
	C385.055511,80.640381 385.643982,82.311340 386.693451,83.531303 
	C386.693451,71.630905 386.693451,59.730511 386.693451,47.830112 
	C386.520660,47.824471 386.347839,47.818825 386.175049,47.813183 
	C386.081329,49.912907 385.987610,52.012634 385.148956,54.520947 
M331.782104,84.391113 
	C331.197876,84.320816 330.613647,84.250526 329.097229,84.044769 
	C320.748871,83.993088 312.400513,83.941406 304.035583,83.192528 
	C304.291412,82.122353 304.547241,81.052177 304.944183,79.056541 
	C304.899567,68.697983 304.854950,58.339420 304.968109,47.218075 
	C303.987244,46.541615 303.006348,45.865158 301.170715,45.060658 
	C299.445221,45.103577 297.719696,45.146496 295.484924,45.120342 
	C295.380219,45.411270 295.275482,45.702198 295.056946,46.489254 
	C295.093597,46.654926 295.130219,46.820595 295.027405,47.915958 
	C295.076416,62.282028 295.125458,76.648094 295.057312,91.514015 
	C295.099457,91.679878 295.141571,91.845741 295.132812,92.509247 
	C295.416199,92.602821 295.699585,92.696404 296.912781,92.930840 
	C308.060089,92.780876 319.207397,92.630913 330.762390,92.866348 
	C331.113403,92.576363 331.464417,92.286377 331.905121,91.508789 
	C331.750336,91.179169 331.492157,90.992577 331.039642,90.136337 
	C331.076813,88.775856 331.113953,87.415382 331.614502,85.882156 
	C331.948578,85.657501 332.024414,85.365730 331.782104,84.391113 
M479.711426,92.793892 
	C480.475739,92.058151 481.795197,91.402702 481.915070,90.573761 
	C482.746124,84.827179 483.726685,79.053902 483.862823,73.270439 
	C483.971222,68.666367 481.654724,64.931190 476.159912,63.056923 
	C468.456024,63.087650 460.752136,63.118378 453.971405,63.022137 
	C460.420593,63.022137 466.869781,63.022137 473.318970,63.022137 
	C473.315125,62.631664 473.311279,62.241188 473.307434,61.850716 
	C466.554321,61.850716 459.801208,61.850716 453.007263,61.393253 
	C453.007263,61.393253 452.855957,60.959621 452.978577,60.083282 
	C452.978577,58.826920 452.978577,57.570557 452.978577,55.859528 
	C462.796844,55.859528 472.067230,55.859528 481.337616,55.859528 
	C473.894867,55.000061 466.466187,55.067024 459.040192,54.955494 
	C457.050903,54.925617 455.069763,54.351238 454.010712,53.983940 
	C462.349426,53.927734 470.688141,53.871529 479.700745,53.964935 
	C480.413269,53.640270 481.125763,53.315609 481.970490,52.095516 
	C481.970490,49.835075 481.970490,47.574638 481.970490,44.891663 
	C469.598907,44.891663 457.821106,44.891663 445.712128,44.272758 
	C444.116638,46.170410 442.521149,48.068062 440.216797,50.456825 
	C440.145813,52.606998 440.041748,54.756714 440.012238,56.907455 
	C439.975830,59.561779 439.936005,62.218857 440.013580,64.871353 
	C440.182709,70.654022 445.514160,75.919266 451.418915,76.009949 
	C457.847809,76.108688 464.279358,76.032372 470.896210,76.032372 
	C470.896210,78.367775 470.896210,80.172417 469.973175,81.996964 
	C460.888611,81.996964 451.804016,81.996964 442.719452,81.996964 
	C442.722443,82.338966 442.725464,82.680977 442.728455,83.022980 
	C452.117706,83.022980 461.506989,83.022980 470.945709,83.458023 
	C470.945709,83.458023 470.957153,83.895729 470.032104,84.014481 
	C461.347260,84.073494 452.662415,84.132515 443.300018,84.034096 
	C442.587433,84.360649 441.874817,84.687202 441.041199,85.878967 
	C441.082764,87.914436 441.124329,89.949898 441.284454,92.665535 
	C442.180328,92.714592 443.076172,92.763649 444.904663,92.942657 
	C455.588470,92.996712 466.272278,93.050758 476.700928,93.693977 
	C476.206329,93.912140 475.711731,94.130310 475.217133,94.348473 
	C475.425507,94.678207 475.633881,95.007942 475.842224,95.337669 
	C476.894836,94.558296 477.947418,93.778923 479.711426,92.793892 
M103.535751,121.813889 
	C74.909454,121.813889 46.283165,121.813889 17.656872,121.813889 
	C17.957975,122.721489 18.258207,122.947624 18.558668,122.947929 
	C46.506657,122.976082 74.454742,123.010460 102.402374,122.915031 
	C103.545929,122.911133 104.685272,121.675583 106.112190,120.397850 
	C108.016273,118.260841 109.920357,116.123833 112.126648,113.372864 
	C114.983459,109.726913 120.037323,107.645897 119.989662,101.937790 
	C119.886894,89.629883 119.877861,77.321190 119.653717,64.292381 
	C118.431335,64.257591 117.208954,64.222794 115.064690,64.055687 
	C110.387779,64.010094 105.710876,63.964497 100.869545,63.413776 
	C100.557983,63.281464 100.246429,63.149151 99.898277,62.507896 
	C99.933586,62.341511 99.968903,62.175121 100.643852,61.804134 
	C107.034210,55.198341 113.424576,48.592548 119.958595,41.060963 
	C119.915756,33.378124 119.872917,25.695290 119.712975,17.333529 
	C118.818558,17.282988 117.924141,17.232449 116.097122,17.049547 
	C103.054192,17.093210 90.011253,17.136871 76.128967,17.027658 
	C74.427155,17.080811 72.725342,17.133963 70.090988,17.055542 
	C57.740692,16.994925 45.390400,16.934305 33.053120,16.513998 
	C33.053120,16.513998 33.117737,16.159918 34.032990,16.046709 
	C46.753479,16.046709 59.473969,16.046709 72.194458,16.046709 
	C72.192123,15.735027 72.189781,15.423346 72.187439,15.111664 
	C59.111866,15.111664 46.036289,15.111664 32.295193,15.211523 
	C30.840069,17.130430 29.384945,19.049335 27.304085,21.303616 
	C25.810400,22.894262 24.135777,24.353546 22.863989,26.105293 
	C20.778366,28.978010 17.429857,31.969385 17.286482,35.035686 
	C16.696074,47.662373 17.112543,60.336136 17.138844,73.827850 
	C18.627054,74.185097 20.107763,74.808113 21.604862,74.850372 
	C26.330772,74.983780 31.062824,74.899590 35.792500,74.899590 
	C35.971329,75.300957 36.150162,75.702316 36.328995,76.103683 
	C32.300972,80.153648 28.195292,84.130280 24.274647,88.281662 
	C21.996447,90.693924 20.015244,93.386673 17.201572,96.458908 
	C17.188393,104.302002 17.175213,112.145103 17.289135,120.664230 
	C18.182163,120.712128 19.075193,120.760025 20.900970,120.940750 
	C35.921658,120.887962 50.942341,120.835175 66.895325,120.928978 
	C79.249496,120.982834 91.603676,121.036697 103.982315,121.017097 
	C103.982315,121.017097 103.908531,121.040573 103.535751,121.813889 
M209.468948,64.181274 
	C217.086685,64.181274 224.704407,64.181274 232.322144,64.181274 
	C224.884811,63.005486 217.452850,62.886131 210.033463,63.137726 
	C208.954865,63.174305 207.936462,64.985199 206.244095,66.237953 
	C205.518967,65.903015 204.152313,65.534790 204.167709,65.238281 
	C204.326279,62.182560 204.708313,59.138435 205.958878,56.013481 
	C214.745590,56.013481 223.532303,56.013481 232.319016,56.013481 
	C232.316422,55.632339 232.313828,55.251198 232.311234,54.870056 
	C223.221085,54.870056 214.130951,54.870056 205.040878,54.488800 
	C205.040878,54.488800 205.043976,54.107555 205.968597,53.986530 
	C214.318375,53.926918 222.668167,53.867310 231.623611,53.955040 
	C232.026077,53.631847 232.428543,53.308651 232.946136,52.488758 
	C232.908096,52.323116 232.870071,52.157471 232.942230,51.500259 
	C232.899109,51.337975 232.855988,51.175690 232.942444,50.260391 
	C232.899017,49.500160 232.855606,48.739929 232.971100,47.218216 
	C231.989700,46.541428 231.008301,45.864639 229.094452,45.057461 
	C219.401703,45.099121 209.708969,45.140781 199.268463,45.027702 
	C193.906403,45.764328 193.979843,50.188862 193.042328,54.942245 
	C193.085434,64.623055 193.128555,74.303864 193.022888,84.778076 
	C193.016861,85.590477 192.860168,86.435989 193.030167,87.209717 
	C193.894623,91.144371 197.366043,93.888245 200.943207,92.943871 
	C210.636154,92.898338 220.329102,92.852806 230.695282,92.964821 
	C231.406723,92.638168 232.118149,92.311508 232.959534,91.120987 
	C232.914642,89.085831 232.869751,87.050667 232.710281,84.336365 
	C231.816437,84.288315 230.922607,84.240265 229.096176,84.061272 
	C221.079346,84.005737 213.062531,83.950203 205.046036,83.509750 
	C205.046036,83.509750 205.074280,83.125877 205.996506,83.024605 
	C214.460922,83.024605 222.925354,83.024605 231.389771,83.024605 
	C231.389877,82.641068 231.389969,82.257530 231.390076,81.873993 
	C222.618118,81.873993 213.846161,81.873993 205.040909,81.031540 
	C205.040894,79.064323 205.040863,77.097115 205.966995,75.019241 
	C214.749557,75.019241 223.532120,75.019241 232.314682,75.019241 
	C232.311966,74.636147 232.309265,74.253044 232.306564,73.869949 
	C223.217941,73.869949 214.129333,73.869949 205.038193,73.492691 
	C205.038193,73.492691 205.035126,73.115440 205.959976,72.985863 
	C214.642853,72.920517 223.325745,72.855171 232.503616,72.857216 
	C232.874069,72.672249 232.977783,72.389450 232.957428,71.161446 
	C232.908890,69.446556 232.860352,67.731659 232.686325,65.346054 
	C231.800690,65.296066 230.915070,65.246071 229.097092,65.064438 
	C222.413025,65.011406 215.728958,64.958374 209.009384,64.979111 
	C209.009384,64.979111 209.085342,64.948578 209.468948,64.181274 
M383.971619,52.250557 
	C384.329773,47.237728 380.539673,46.328533 376.057129,45.056499 
	C365.043549,45.100330 354.029968,45.144161 342.473816,44.923340 
	C342.258942,44.588623 342.044037,44.253906 342.800964,43.788815 
	C353.863129,43.788815 364.925293,43.788815 375.987427,43.788815 
	C367.199341,42.980724 358.415497,42.905632 349.634369,43.027218 
	C347.054321,43.062939 344.481995,43.656292 341.180267,43.989124 
	C339.455597,46.411095 336.350616,48.772373 336.241028,51.265369 
	C335.718475,63.149364 335.870636,75.071770 336.095367,86.974617 
	C336.163910,90.604042 340.483704,93.813210 343.944336,92.939552 
	C354.956940,92.896324 365.969574,92.853096 377.616333,93.139244 
	C380.677063,93.465271 383.899261,89.226685 383.938293,84.055206 
	C383.896545,73.709373 383.854797,63.363537 383.971619,52.250557 
M244.914642,75.136581 
	C240.937775,80.771683 238.035507,86.825233 236.930786,93.794540 
	C240.717087,93.794540 243.808533,93.794540 247.367081,93.794540 
	C252.601730,82.616089 256.684875,69.993057 264.559479,58.301018 
	C270.433960,71.049057 275.859558,82.822945 280.800751,93.545715 
	C284.562256,93.333351 287.641479,93.159508 291.964233,92.915459 
	C284.506592,76.481705 277.106415,60.174610 269.768738,44.005264 
	C266.945343,44.005264 264.679413,44.426353 262.650574,43.912048 
	C259.117004,43.016300 257.698395,45.444916 256.367126,47.576561 
	C254.881775,49.954937 253.987839,52.709114 252.891953,55.322975 
	C250.239624,61.649189 247.619522,67.988914 244.914642,75.136581 
M191.000198,48.679855 
	C190.897018,47.645004 190.793854,46.610149 190.690674,45.575298 
	C190.627136,45.587482 190.563583,45.599663 190.500031,45.611847 
	C190.500031,61.175526 190.500031,76.739204 190.500031,92.302879 
	C191.074219,90.528687 191.077087,88.736061 191.073776,86.943443 
	C191.050674,74.480270 191.026291,62.017105 191.000198,48.679855 
M294.000000,84.411446 
	C294.000000,71.545082 294.000000,58.678726 294.000000,45.812366 
	C293.579285,45.815903 293.158600,45.819443 292.737885,45.822983 
	C292.737885,61.477619 292.737885,77.132256 292.737885,92.786896 
	C293.158600,92.809685 293.579285,92.832474 294.000000,92.855263 
	C294.000000,90.361649 294.000000,87.868027 294.000000,84.411446 
M102.497780,14.997253 
	C93.282074,14.997253 84.066376,14.997253 74.850670,14.997253 
	C74.855865,15.217452 74.861053,15.437652 74.866241,15.657850 
	C89.535378,15.657850 104.204506,15.657850 118.873642,15.657850 
	C118.873688,15.437651 118.873726,15.217451 118.873772,14.997252 
	C113.747940,14.997252 108.622108,14.997252 102.497780,14.997253 
M437.000000,70.498138 
	C437.000000,76.063911 437.000000,81.629684 437.000000,87.195457 
	C437.238983,87.185646 437.477997,87.175835 437.716980,87.166023 
	C437.716980,73.316032 437.716980,59.466038 437.716980,45.616047 
	C437.477997,45.614708 437.238983,45.613369 437.000000,45.612030 
	C437.000000,53.574333 437.000000,61.536636 437.000000,70.498138 
M15.000075,68.271996 
	C15.000075,69.978180 15.000075,71.684364 15.000075,73.390549 
	C15.237040,73.386612 15.474004,73.382675 15.710968,73.378738 
	C15.710968,59.798126 15.710968,46.217514 15.710968,32.636902 
	C15.474004,32.635895 15.237039,32.634888 15.000074,32.633881 
	C15.000074,44.197487 15.000074,55.761089 15.000075,68.271996 
M121.000114,102.115829 
	C121.086090,103.241119 121.172058,104.366409 121.258034,105.491699 
	C121.419708,105.485809 121.581383,105.479912 121.743057,105.474022 
	C121.743057,91.825867 121.743057,78.177704 121.743057,64.529549 
	C121.495392,64.527359 121.247719,64.525169 121.000053,64.522987 
	C121.000053,76.747185 121.000053,88.971390 121.000114,102.115829 
M186.011932,43.999363 
	C186.811661,43.927139 187.611389,43.854916 188.411118,43.782692 
	C188.405289,43.616390 188.399445,43.450085 188.393616,43.283783 
	C175.120132,43.283783 161.846634,43.283783 148.573151,43.283783 
	C148.570145,43.522480 148.567123,43.761173 148.564117,43.999870 
	C160.745636,43.999870 172.927155,43.999870 186.011932,43.999363 
M306.000000,56.531837 
	C306.000000,64.493431 306.000000,72.455025 306.000000,80.416618 
	C306.235504,80.413780 306.471039,80.410934 306.706543,80.408096 
	C306.706543,68.822952 306.706543,57.237808 306.706543,45.652660 
	C306.471039,45.650913 306.235504,45.649162 306.000000,45.647415 
	C306.000000,48.947094 306.000000,52.246777 306.000000,56.531837 
M333.797272,85.851891 
	C334.153900,85.603203 334.821320,85.356018 334.822510,85.105629 
	C334.874420,74.294289 334.867188,63.482658 334.867188,52.671066 
	C334.000000,58.464630 334.110382,64.258179 333.966766,70.045418 
	C333.840637,75.128090 333.429932,80.203697 333.797272,85.851891 
M473.406067,43.000061 
	C464.778564,43.000061 456.151062,43.000061 447.523590,43.000061 
	C447.527191,43.228447 447.530792,43.456829 447.534393,43.685215 
	C458.783295,43.685215 470.032196,43.685215 481.281128,43.685215 
	C481.284760,43.456829 481.288391,43.228447 481.292053,43.000061 
	C478.984802,43.000061 476.677582,43.000061 473.406067,43.000061 
M217.492859,43.999939 
	C222.063751,43.999939 226.634644,43.999939 231.205536,43.999939 
	C231.193863,43.760601 231.182175,43.521267 231.170502,43.281929 
	C220.650879,43.281929 210.131241,43.281929 199.611618,43.281929 
	C199.611176,43.521267 199.610733,43.760601 199.610291,43.999939 
	C205.239014,43.999939 210.867752,43.999939 217.492859,43.999939 
M15.999926,106.535980 
	C15.999926,103.278793 15.999926,100.021599 15.999926,96.764412 
	C15.759012,96.779037 15.518098,96.793663 15.277184,96.808296 
	C15.277184,104.673828 15.277184,112.539352 15.277184,120.404884 
	C15.518098,120.407837 15.759012,120.410782 15.999926,120.413734 
	C15.999926,116.115158 15.999926,111.816574 15.999926,106.535980 
z"/>
<path fill="#F4F4F4" opacity="1.000000" stroke="none" 
	d="
M99.934868,63.016842 
	C100.246429,63.149151 100.557983,63.281464 100.847725,63.994606 
	C105.215729,65.038567 109.600334,65.578789 114.001328,65.877098 
	C114.622063,65.919182 115.322845,64.780273 115.986572,64.188004 
	C117.208954,64.222794 118.431335,64.257591 119.358681,64.755707 
	C118.708595,66.735390 118.070221,68.247383 118.046875,69.768822 
	C117.937836,76.875061 117.844574,83.988136 118.040283,91.090652 
	C118.250389,98.715683 119.057777,106.404427 111.291954,111.380173 
	C111.023102,111.552437 111.627213,113.087143 111.824432,113.986832 
	C109.920357,116.123833 108.016273,118.260841 105.649696,120.704926 
	C104.760979,121.021530 104.334755,121.031052 103.908531,121.040573 
	C103.908531,121.040573 103.982315,121.017097 103.898659,120.648117 
	C102.174042,119.852768 100.537231,119.076988 98.891441,119.057426 
	C89.100868,118.941116 79.305977,118.880035 69.517517,119.064545 
	C66.106049,119.128853 64.754486,118.148499 64.934380,114.584244 
	C65.193192,109.456688 65.000465,104.306343 65.000465,99.165726 
	C64.667442,99.171654 64.334412,99.177589 64.001389,99.183525 
	C64.001389,105.789558 64.001389,112.395592 63.604267,118.911560 
	C62.805256,117.326874 62.095661,115.840202 62.056740,114.336182 
	C61.916237,108.907112 62.001476,103.472214 62.001476,98.039513 
	C60.998100,103.614304 60.847473,109.195541 61.055641,114.763359 
	C61.176926,118.007309 60.078846,119.112228 56.799759,119.058868 
	C46.512306,118.891434 36.220394,118.998848 25.930210,118.997818 
	C19.003998,118.997124 19.142254,118.991943 18.956875,112.019875 
	C18.814329,106.658745 18.267467,101.308372 17.900400,95.953217 
	C20.015244,93.386673 21.996447,90.693924 24.274647,88.281662 
	C28.195292,84.130280 32.300972,80.153648 36.328995,76.103683 
	C36.150162,75.702316 35.971329,75.300957 35.792500,74.899590 
	C31.062824,74.899590 26.330772,74.983780 21.604862,74.850372 
	C20.107763,74.808113 18.627054,74.185097 17.606833,73.413239 
	C25.025702,72.998634 31.976582,72.998634 38.927460,72.998634 
	C33.528709,71.996735 28.119295,71.891678 22.716820,72.039757 
	C19.891970,72.117188 18.911634,71.047600 18.960520,68.254723 
	C19.088724,60.930519 19.457569,53.566681 18.883223,46.285477 
	C18.214796,37.811565 19.459244,30.561216 26.966383,25.331238 
	C27.864716,24.705399 27.636091,22.461927 27.929821,20.968243 
	C29.384945,19.049335 30.840069,17.130430 32.665382,15.423922 
	C33.062962,15.810853 33.090351,15.985385 33.117737,16.159918 
	C33.117737,16.159918 33.053120,16.513998 33.035881,17.048141 
	C33.012630,18.054844 33.006618,18.527403 32.860710,19.053612 
	C32.813881,19.071323 32.906960,19.035383 33.468689,18.999279 
	C43.263515,18.999052 52.589684,18.998964 61.915855,18.998940 
	C71.999390,18.998913 71.999390,18.998938 71.999390,28.863642 
	C71.999390,32.182430 71.999390,35.501217 71.999390,38.820004 
	C72.996391,32.845097 73.107895,26.877655 72.906822,20.920763 
	C72.864143,19.656464 71.681152,18.430656 71.023529,17.187115 
	C72.725342,17.133963 74.427155,17.080811 76.291489,17.385221 
	C75.969269,19.533253 75.203827,21.300177 75.051300,23.118515 
	C74.551132,29.081366 74.273666,35.062897 73.616249,41.145824 
	C73.153793,41.853035 72.985680,42.451668 72.585403,43.286842 
	C72.215286,44.394215 72.077332,45.265041 71.743217,46.103497 
	C71.547058,46.071125 71.150085,46.048317 70.749817,46.036201 
	C66.565529,45.760437 66.039055,48.230190 65.926071,51.444435 
	C64.253998,53.174149 62.704491,54.609165 60.924030,56.113358 
	C60.383099,56.319504 60.162350,56.544170 59.676598,56.935642 
	C58.227509,57.838131 56.978741,58.519253 56.063953,59.509041 
	C51.674538,64.258331 47.375435,69.091095 42.864777,74.161255 
	C42.116432,74.838821 41.547562,75.249352 40.525017,75.987282 
	C48.378513,75.987282 55.602322,75.987282 62.899937,76.412079 
	C62.973743,83.021027 62.973743,89.205162 62.973743,95.258675 
	C64.449188,94.010368 65.662399,92.983925 67.269318,91.969986 
	C72.495392,92.184967 73.537506,88.361694 75.228821,84.848694 
	C80.292625,79.592583 85.222244,74.566750 90.022697,69.420433 
	C91.515396,67.820190 92.658142,65.893509 94.205765,63.813858 
	C96.278580,63.346573 98.106720,63.181709 99.934868,63.016842 
M97.483345,65.590050 
	C97.483345,65.590050 97.414833,65.476616 97.483345,65.590050 
z"/>
<path fill="#F4F4F4" opacity="1.000000" stroke="none" 
	d="
M119.814934,41.986755 
	C113.424576,48.592548 107.034210,55.198341 100.070915,61.626194 
	C91.062950,61.517895 82.627914,61.587532 74.130127,61.240189 
	C74.106682,54.878510 74.145996,48.933807 74.567070,42.881943 
	C75.299698,41.246487 75.914993,39.724770 75.953156,38.188717 
	C76.080994,33.041862 76.107140,27.886932 75.961525,22.741056 
	C75.882751,19.956934 76.886230,18.933039 79.704033,18.958679 
	C91.332146,19.064489 102.962112,19.054529 114.590530,18.968559 
	C117.232849,18.949022 118.078323,20.031750 118.026527,22.536827 
	C117.920097,27.684603 117.873878,32.841160 118.081772,37.982822 
	C118.136589,39.338608 119.209518,40.653229 119.814934,41.986755 
z"/>
<path fill="#F4F4F4" opacity="1.000000" stroke="none" 
	d="
M341.829132,43.919197 
	C342.044037,44.253906 342.258942,44.588623 342.850281,45.437111 
	C343.753479,46.283318 344.278137,46.901947 344.807281,46.905785 
	C354.704956,46.977646 364.603607,47.019810 374.500397,46.912338 
	C375.334503,46.903282 376.156555,45.788387 376.984222,45.187241 
	C380.539673,46.328533 384.329773,47.237728 383.510803,52.738899 
	C382.717438,53.753483 382.099060,54.277462 382.094849,54.806301 
	C382.021698,64.039162 381.977478,73.273170 382.088287,82.504974 
	C382.098267,83.337852 383.214203,84.157455 383.816528,84.983231 
	C383.899261,89.226685 380.677063,93.465271 377.194092,92.593323 
	C376.244843,91.715546 375.719971,91.097984 375.190613,91.094154 
	C365.294189,91.022408 355.396729,90.980286 345.501190,91.087677 
	C344.667023,91.096733 343.844879,92.210548 343.017151,92.811096 
	C340.483704,93.813210 336.163910,90.604042 336.095367,86.974617 
	C335.870636,75.071770 335.718475,63.149364 336.241028,51.265369 
	C336.350616,48.772373 339.455597,46.411095 341.524841,43.971970 
	C341.869385,43.954811 341.829132,43.919201 341.829132,43.919197 
M346.057312,83.456024 
	C346.057312,83.456024 346.036438,83.889351 345.682922,84.425514 
	C345.114349,84.844200 344.545776,85.262886 343.545654,85.999352 
	C352.809113,85.999352 361.457123,86.081230 370.100281,85.912857 
	C371.427490,85.887009 372.732269,84.708244 374.828308,83.833702 
	C375.193756,83.321487 375.872955,82.812302 375.877930,82.296608 
	C375.961670,73.634232 376.013458,64.970299 375.889801,56.309311 
	C375.878815,55.541821 374.602966,54.792393 373.334869,54.246983 
	C373.165771,54.835690 372.996674,55.424397 372.348145,56.031239 
	C372.348145,56.031239 371.868500,56.042427 370.947754,56.035400 
	C363.316925,56.061165 355.686066,56.086926 347.865204,55.676750 
	C347.704407,55.390354 347.475311,55.177418 346.992188,54.556595 
	C346.963470,54.387035 346.934784,54.217472 347.684021,53.704330 
	C351.134705,53.469299 354.582428,53.111095 358.036743,53.028790 
	C362.927734,52.912243 367.823578,52.999237 372.717377,52.999237 
	C364.893036,52.002712 357.098846,51.921223 349.310333,52.094879 
	C348.204620,52.119534 347.126495,53.384312 346.008636,54.007893 
	C346.008636,54.007893 346.075653,54.035431 345.267395,54.183758 
	C344.854095,54.830307 344.089874,55.472317 344.081451,56.124115 
	C343.989258,63.242889 343.955444,70.364304 344.088379,77.481606 
	C344.104126,78.325653 345.207550,79.149384 345.961945,80.637825 
	C346.010101,81.084038 346.058258,81.530258 345.550751,82.020287 
	C345.287170,82.141457 345.023590,82.262627 344.760010,82.383774 
	C345.213501,82.598122 345.666992,82.812469 346.057312,83.456024 
z"/>
<path fill="#F6F6F6" opacity="1.000000" stroke="none" 
	d="
M244.950531,74.729889 
	C247.619522,67.988914 250.239624,61.649189 252.891953,55.322975 
	C253.987839,52.709114 254.881775,49.954937 256.367126,47.576561 
	C257.698395,45.444916 259.117004,43.016300 262.650574,43.912048 
	C264.679413,44.426353 266.945343,44.005264 269.768738,44.005264 
	C277.106415,60.174610 284.506592,76.481705 291.964233,92.915459 
	C287.641479,93.159508 284.562256,93.333351 280.800751,93.545715 
	C275.859558,82.822945 270.433960,71.049057 264.559479,58.301018 
	C256.684875,69.993057 252.601730,82.616089 247.367081,93.794540 
	C243.808533,93.794540 240.717087,93.794540 236.930786,93.794540 
	C238.035507,86.825233 240.937775,80.771683 244.950531,74.729889 
z"/>
<path fill="#F4F4F4" opacity="1.000000" stroke="none" 
	d="
M470.957153,83.895729 
	C470.957153,83.895729 470.945709,83.458023 471.187622,83.216415 
	C471.682007,82.857826 471.934479,82.740837 472.186951,82.623856 
	C471.756714,82.408257 471.326447,82.192657 470.896210,81.977066 
	C470.896210,80.172417 470.896210,78.367775 470.896210,76.032372 
	C464.279358,76.032372 457.847809,76.108688 451.418915,76.009949 
	C445.514160,75.919266 440.182709,70.654022 440.013580,64.871353 
	C439.936005,62.218857 439.975830,59.561779 440.012238,56.907455 
	C440.041748,54.756714 440.145813,52.606998 440.883423,50.495361 
	C441.794617,55.627441 442.039185,60.720985 442.283752,65.814529 
	C443.001221,62.511772 443.163147,59.217815 442.958740,55.946758 
	C442.722839,52.172031 443.720154,49.112640 447.465210,47.000309 
	C457.219635,47.001339 466.507965,46.889072 475.787628,47.122665 
	C477.192719,47.158035 478.557281,48.802269 479.940613,49.702324 
	C478.587799,50.467297 477.254364,51.850422 475.878906,51.893543 
	C468.755981,52.116856 461.620850,51.931267 454.494232,52.086426 
	C453.652740,52.104744 452.837677,53.337196 451.874084,54.319199 
	C452.110565,56.740917 452.483276,58.850269 452.855957,60.959621 
	C452.855957,60.959621 453.007263,61.393253 453.020233,61.946587 
	C453.038208,62.716312 453.043213,62.932705 453.048248,63.149101 
	C460.752136,63.118378 468.456024,63.087650 476.605530,63.394150 
	C477.127533,64.870010 476.796753,66.723694 477.344086,67.035347 
	C482.183014,69.790771 480.844879,74.353668 480.994965,78.484909 
	C481.156464,82.931229 481.444794,87.416267 477.747253,91.000313 
	C477.499390,91.000015 477.003662,90.999084 476.534790,90.999298 
	C467.293854,90.999580 458.516846,91.161026 449.753204,90.889999 
	C447.467438,90.819305 443.183258,93.041557 443.231262,88.371933 
	C443.274811,84.139702 447.322815,86.180878 449.517426,86.102753 
	C457.025391,85.835526 464.548706,86.000305 472.444336,86.000305 
	C471.697723,84.943718 471.327423,84.419724 470.957153,83.895729 
z"/>
<path fill="#F4F4F4" opacity="1.000000" stroke="none" 
	d="
M168.954727,57.844467 
	C169.246658,57.425282 169.538574,57.006096 170.073990,56.231949 
	C170.612091,55.713009 170.828415,55.477207 170.966446,55.169586 
	C171.253235,54.984570 171.540009,54.799549 172.069153,54.095619 
	C172.882233,53.161171 173.452957,52.745628 174.480026,51.997814 
	C167.059418,51.997814 160.269455,52.140274 153.494217,51.887764 
	C151.986206,51.831558 150.529984,50.385178 149.049927,49.578861 
	C150.477234,48.719879 151.892838,47.139339 153.333679,47.115990 
	C164.934433,46.928005 176.539948,47.033333 188.143997,47.049038 
	C188.107498,48.064056 188.070999,49.079079 188.029785,50.783943 
	C188.035828,51.679211 188.046600,51.884624 188.057373,52.090042 
	C188.057373,52.090042 188.044174,52.004417 187.743393,52.041222 
	C186.752747,52.599304 186.062881,53.120575 185.373016,53.641846 
	C185.858154,54.091183 186.343277,54.540516 186.828400,54.989853 
	C185.188248,57.193092 183.621750,59.456062 181.893356,61.587761 
	C177.619125,66.859283 173.301056,72.096184 168.932510,77.289726 
	C167.727631,78.722160 166.283447,79.953308 164.933899,81.824860 
	C164.918732,82.372902 164.930206,82.738937 164.930206,82.738937 
	C164.366547,82.935905 163.802872,83.132881 162.961731,83.881943 
	C162.115555,84.845787 161.546890,85.257545 160.522507,85.999268 
	C168.765747,85.999268 176.372055,86.085304 183.972855,85.918945 
	C185.320908,85.889435 186.645966,84.809357 187.981644,84.214394 
	C188.240036,86.995880 188.498413,89.777374 188.262741,92.298569 
	C185.912201,91.692390 184.058105,91.062645 182.198883,91.047142 
	C170.977875,90.953568 159.755692,91.000610 149.400024,91.000610 
	C147.981308,88.789627 147.091888,87.403511 146.202469,86.017395 
	C146.861176,84.788742 147.368256,83.443993 148.204773,82.351494 
	C151.851898,77.588341 155.450226,72.774498 159.353348,68.225380 
	C161.984589,65.158669 165.095154,62.503227 168.268494,59.183907 
	C168.772400,58.460510 168.908737,58.173996 168.954727,57.844467 
z"/>
<path fill="#F4F4F4" opacity="1.000000" stroke="none" 
	d="
M193.170914,54.014721 
	C193.979843,50.188862 193.906403,45.764328 199.746674,45.487099 
	C201.747711,46.297611 203.266403,46.929676 204.794037,46.952065 
	C212.085068,47.058910 219.383362,46.862133 226.667053,47.117054 
	C228.122452,47.167995 229.525406,48.717899 230.952545,49.576630 
	C229.474045,50.384075 228.016235,51.841438 226.513535,51.889297 
	C218.993500,52.128826 211.461716,51.998955 203.554260,51.998955 
	C204.302582,53.058167 204.673279,53.582859 205.043976,54.107555 
	C205.043976,54.107555 205.040878,54.488800 205.034973,54.984657 
	C205.028763,55.684032 205.028427,55.887554 205.028091,56.091076 
	C204.708313,59.138435 204.326279,62.182560 204.167709,65.238281 
	C204.152313,65.534790 205.518967,65.903015 206.854645,66.008652 
	C208.005249,65.502426 208.545303,65.225502 209.085342,64.948578 
	C209.085342,64.948578 209.009384,64.979111 209.096924,65.348503 
	C210.654938,66.145424 212.113892,66.887192 213.598038,66.941612 
	C218.063248,67.105309 222.545746,66.857613 227.004807,67.090462 
	C228.316025,67.158936 229.571609,68.292999 230.852692,68.938698 
	C229.612534,69.625221 228.391724,70.860184 227.128906,70.904793 
	C221.174728,71.115082 215.203903,70.866356 209.251175,71.096268 
	C207.821960,71.151466 206.439240,72.410210 205.035126,73.115440 
	C205.035126,73.115440 205.038193,73.492691 205.035538,73.996307 
	C205.035538,74.709915 205.038193,74.919907 205.040848,75.129898 
	C205.040863,77.097115 205.040894,79.064323 205.037567,81.765747 
	C205.047562,82.708588 205.060928,82.917229 205.074280,83.125877 
	C205.074280,83.125877 205.046036,83.509750 204.885468,83.974800 
	C205.076065,84.960457 205.421127,85.930237 205.779312,85.935112 
	C212.424179,86.025551 219.073151,85.899223 225.715195,86.063309 
	C227.681915,86.111900 231.090149,84.678230 230.714081,88.611870 
	C230.624283,89.551041 227.635483,90.830894 225.942062,90.891426 
	C218.806625,91.146477 211.654114,90.896759 204.514359,91.082001 
	C203.000763,91.121262 201.514420,92.211578 200.015518,92.817642 
	C197.366043,93.888245 193.894623,91.144371 193.030167,87.209717 
	C192.860168,86.435989 193.016861,85.590477 193.480499,84.278755 
	C194.274002,83.255173 194.898132,82.733452 194.902786,82.206268 
	C194.978455,73.631889 195.025635,65.056152 194.911011,56.482971 
	C194.899902,55.652615 193.777466,54.837116 193.170914,54.014721 
M202.001221,63.577862 
	C202.001221,60.775665 202.001221,57.973473 202.001221,55.171276 
	C201.773544,55.180008 201.545853,55.188744 201.318176,55.197475 
	C201.318176,64.400192 201.318176,73.602905 201.318176,82.805618 
	C201.545853,82.805710 201.773544,82.805809 202.001221,82.805901 
	C202.001221,76.722023 202.001221,70.638145 202.001221,63.577862 
z"/>
<path fill="#F4F4F4" opacity="1.000000" stroke="none" 
	d="
M434.034912,89.104218 
	C432.091125,91.178322 432.637817,96.247688 426.791107,94.471413 
	C428.193848,94.106697 428.920654,93.917740 429.734314,93.015213 
	C429.186340,91.879013 428.554504,91.093452 427.916077,91.088020 
	C417.867737,91.002586 407.817871,90.963638 397.770844,91.099426 
	C396.845795,91.111931 395.937775,92.385719 395.021820,93.073837 
	C393.027069,91.288284 391.032318,89.502739 389.492615,87.246407 
	C390.298065,85.087646 390.935638,83.402390 390.951599,81.711250 
	C391.047028,71.607613 390.898438,61.500519 391.110870,51.400455 
	C391.141754,49.931740 392.669403,48.494503 393.504456,47.042698 
	C394.335754,48.497997 395.850647,49.936584 395.886688,51.411339 
	C396.109344,60.516541 395.908539,69.631721 396.093079,78.738625 
	C396.121918,80.161652 397.400665,81.559341 398.101440,82.968750 
	C398.389984,82.801323 398.678558,82.633904 399.282166,82.224548 
	C399.597229,81.982628 400.020172,81.990028 400.020172,81.990028 
	C400.020172,81.990028 400.003876,81.903259 400.120087,82.150589 
	C400.525848,82.606300 400.815369,82.814674 401.079742,83.238670 
	C401.054565,83.454285 401.036804,83.888092 400.879517,84.161873 
	C400.737213,84.956917 400.748779,85.934937 400.767731,85.935074 
	C409.512146,86.000839 418.257324,86.022560 427.000916,85.916382 
	C427.339203,85.912277 427.662415,84.670197 428.196411,83.718758 
	C428.809723,82.777603 429.582825,82.117943 429.574371,81.468437 
	C429.442993,71.359520 429.121918,61.252056 429.106293,51.143841 
	C429.104187,49.783810 430.523071,48.421577 431.283997,47.060356 
	C432.188324,48.443581 433.854126,49.813782 433.878052,51.212067 
	C434.093933,63.839985 434.022247,76.472824 434.034912,89.104218 
z"/>
<path fill="#F4F4F4" opacity="1.000000" stroke="none" 
	d="
M295.174469,91.014175 
	C295.125458,76.648094 295.076416,62.282028 295.535828,47.455334 
	C298.155487,46.994709 300.266754,46.994709 303.000092,46.994709 
	C303.000092,56.907818 302.919312,66.186157 303.080872,75.460281 
	C303.107300,76.977051 304.202087,78.475227 304.803040,79.981995 
	C304.547241,81.052177 304.291412,82.122353 303.862244,83.807556 
	C303.118347,84.832405 302.547729,85.242226 301.416229,86.054901 
	C311.816986,86.054901 321.484039,86.054901 331.151123,86.054901 
	C331.113953,87.415382 331.076813,88.775856 330.607849,90.557327 
	C318.508850,90.990265 306.841675,91.002220 295.174469,91.014175 
z"/>
<path fill="#FAFAFA" opacity="1.000000" stroke="none" 
	d="
M434.381134,88.900978 
	C434.022247,76.472824 434.093933,63.839985 433.878052,51.212067 
	C433.854126,49.813782 432.188324,48.443581 431.283997,47.060356 
	C430.523071,48.421577 429.104187,49.783810 429.106293,51.143841 
	C429.121918,61.252056 429.442993,71.359520 429.574371,81.468437 
	C429.582825,82.117943 428.809723,82.777603 427.927704,83.711464 
	C427.276093,83.983078 427.096954,83.975769 426.935822,83.758194 
	C426.953827,83.547920 426.946594,83.125908 426.966675,82.843918 
	C426.990784,82.373505 426.994812,82.185081 426.998810,81.996666 
	C426.661499,71.015366 426.375671,60.032089 425.953674,49.054050 
	C425.836212,45.998417 427.066650,44.790470 430.051727,44.998768 
	C431.864166,45.125233 433.692657,45.022076 435.972382,45.022076 
	C435.972382,58.654961 436.000580,72.079758 435.918549,85.503876 
	C435.912018,86.570885 435.142365,87.633232 434.381134,88.900978 
z"/>
<path fill="#FCFCFC" opacity="1.000000" stroke="none" 
	d="
M17.550987,96.206062 
	C18.267467,101.308372 18.814329,106.658745 18.956875,112.019875 
	C19.142254,118.991943 19.003998,118.997124 25.930210,118.997818 
	C36.220394,118.998848 46.512306,118.891434 56.799759,119.058868 
	C60.078846,119.112228 61.176926,118.007309 61.055641,114.763359 
	C60.847473,109.195541 60.998100,103.614304 62.001476,98.039513 
	C62.001476,103.472214 61.916237,108.907112 62.056740,114.336182 
	C62.095661,115.840202 62.805256,117.326874 63.741890,119.143890 
	C64.838768,119.904984 65.400902,120.343681 65.963028,120.782379 
	C50.942341,120.835175 35.921658,120.887962 20.224716,120.653717 
	C18.752985,120.240517 17.957508,120.114357 17.162031,119.988190 
	C17.175213,112.145103 17.188393,104.302002 17.550987,96.206062 
z"/>
<path fill="#FCFCFC" opacity="1.000000" stroke="none" 
	d="
M119.886765,41.523857 
	C119.209518,40.653229 118.136589,39.338608 118.081772,37.982822 
	C117.873878,32.841160 117.920097,27.684603 118.026527,22.536827 
	C118.078323,20.031750 117.232849,18.949022 114.590530,18.968559 
	C102.962112,19.054529 91.332146,19.064489 79.704033,18.958679 
	C76.886230,18.933039 75.882751,19.956934 75.961525,22.741056 
	C76.107140,27.886932 76.080994,33.041862 75.953156,38.188717 
	C75.914993,39.724770 75.299698,41.246487 74.499649,42.559788 
	C74.003845,41.908951 73.957214,41.473099 73.910599,41.037247 
	C74.273666,35.062897 74.551132,29.081366 75.051300,23.118515 
	C75.203827,21.300177 75.969269,19.533253 76.711166,17.461658 
	C90.011253,17.136871 103.054192,17.093210 116.771774,17.337725 
	C118.240974,17.754753 119.035522,17.883602 119.830078,18.012451 
	C119.872917,25.695290 119.915756,33.378124 119.886765,41.523857 
z"/>
<path fill="#FAFAFA" opacity="1.000000" stroke="none" 
	d="
M188.465897,46.818443 
	C176.539948,47.033333 164.934433,46.928005 153.333679,47.115990 
	C151.892838,47.139339 150.477234,48.719879 149.049927,49.578861 
	C150.529984,50.385178 151.986206,51.831558 153.494217,51.887764 
	C160.269455,52.140274 167.059418,51.997814 174.480026,51.997814 
	C173.452957,52.745628 172.882233,53.161171 172.130173,53.843204 
	C164.932159,54.056416 157.915497,54.003139 150.224625,53.660965 
	C148.757553,53.244911 147.964661,53.117760 147.171783,52.990608 
	C147.171783,50.526741 147.171783,48.062874 147.171783,45.087574 
	C160.869644,45.087574 174.438873,45.079132 188.007706,45.150097 
	C188.270233,45.151474 188.527863,46.087761 188.465897,46.818443 
z"/>
<path fill="#FAFAFA" opacity="1.000000" stroke="none" 
	d="
M452.010376,54.006844 
	C452.837677,53.337196 453.652740,52.104744 454.494232,52.086426 
	C461.620850,51.931267 468.755981,52.116856 475.878906,51.893543 
	C477.254364,51.850422 478.587799,50.467297 479.940613,49.702324 
	C478.557281,48.802269 477.192719,47.158035 475.787628,47.122665 
	C466.507965,46.889072 457.219635,47.001339 447.194794,46.981789 
	C446.318085,46.272324 446.180725,45.581993 446.043335,44.891663 
	C457.821106,44.891663 469.598907,44.891663 481.970490,44.891663 
	C481.970490,47.574638 481.970490,49.835075 481.595398,52.547009 
	C480.489166,53.270775 479.757996,53.543045 479.026855,53.815319 
	C470.688141,53.871529 462.349426,53.927734 453.279175,53.999329 
	C452.368561,54.012100 452.189484,54.009476 452.010376,54.006844 
z"/>
<path fill="#FAFAFA" opacity="1.000000" stroke="none" 
	d="
M27.616953,21.135929 
	C27.636091,22.461927 27.864716,24.705399 26.966383,25.331238 
	C19.459244,30.561216 18.214796,37.811565 18.883223,46.285477 
	C19.457569,53.566681 19.088724,60.930519 18.960520,68.254723 
	C18.911634,71.047600 19.891970,72.117188 22.716820,72.039757 
	C28.119295,71.891678 33.528709,71.996735 38.927460,72.998634 
	C31.976582,72.998634 25.025702,72.998634 17.616810,72.995613 
	C17.112543,60.336136 16.696074,47.662373 17.286482,35.035686 
	C17.429857,31.969385 20.778366,28.978010 22.863989,26.105293 
	C24.135777,24.353546 25.810400,22.894262 27.616953,21.135929 
z"/>
<path fill="#FEFEFE" opacity="1.000000" stroke="none" 
	d="
M470.494629,83.955109 
	C471.327423,84.419724 471.697723,84.943718 472.444336,86.000305 
	C464.548706,86.000305 457.025391,85.835526 449.517426,86.102753 
	C447.322815,86.180878 443.274811,84.139702 443.231262,88.371933 
	C443.183258,93.041557 447.467438,90.819305 449.753204,90.889999 
	C458.516846,91.161026 467.293854,90.999580 476.530029,91.350327 
	C476.981506,92.169029 476.968811,92.636925 476.956116,93.104813 
	C466.272278,93.050758 455.588470,92.996712 444.228851,92.656342 
	C442.757324,92.241806 441.961609,92.113586 441.165894,91.985367 
	C441.124329,89.949898 441.082764,87.914436 441.410706,85.441307 
	C442.512634,84.732941 443.245117,84.462234 443.977570,84.191528 
	C452.662415,84.132515 461.347260,84.073494 470.494629,83.955109 
z"/>
<path fill="#FDFDFD" opacity="1.000000" stroke="none" 
	d="
M398.046204,82.505005 
	C397.400665,81.559341 396.121918,80.161652 396.093079,78.738625 
	C395.908539,69.631721 396.109344,60.516541 395.886688,51.411339 
	C395.850647,49.936584 394.335754,48.497997 393.504456,47.042698 
	C392.669403,48.494503 391.141754,49.931740 391.110870,51.400455 
	C390.898438,61.500519 391.047028,71.607613 390.951599,81.711250 
	C390.935638,83.402390 390.298065,85.087646 389.565796,86.880257 
	C388.869202,85.892159 388.554474,84.799431 388.574463,83.250198 
	C389.253265,82.272278 389.893829,81.752937 389.897522,81.229111 
	C389.972168,70.640114 390.015076,60.050182 389.909882,49.461990 
	C389.901642,48.632664 388.757599,47.814625 388.141418,46.991341 
	C391.183563,46.060829 394.225677,45.130322 397.990967,43.978622 
	C397.990967,57.516506 397.990967,69.778885 398.046204,82.505005 
z"/>
<path fill="#FEFEFE" opacity="1.000000" stroke="none" 
	d="
M200.479370,92.880753 
	C201.514420,92.211578 203.000763,91.121262 204.514359,91.082001 
	C211.654114,90.896759 218.806625,91.146477 225.942062,90.891426 
	C227.635483,90.830894 230.624283,89.551041 230.714081,88.611870 
	C231.090149,84.678230 227.681915,86.111900 225.715195,86.063309 
	C219.073151,85.899223 212.424179,86.025551 205.779312,85.935112 
	C205.421127,85.930237 205.076065,84.960457 204.885300,84.167267 
	C213.062531,83.950203 221.079346,84.005737 229.771362,84.347115 
	C231.239304,84.760475 232.032089,84.887993 232.824860,85.015511 
	C232.869751,87.050667 232.914642,89.085831 232.586395,91.557747 
	C231.482864,92.265434 230.752457,92.536354 230.022049,92.807274 
	C220.329102,92.852806 210.636154,92.898338 200.479370,92.880753 
z"/>
<path fill="#FEFEFE" opacity="1.000000" stroke="none" 
	d="
M205.506287,54.047043 
	C204.673279,53.582859 204.302582,53.058167 203.554260,51.998955 
	C211.461716,51.998955 218.993500,52.128826 226.513535,51.889297 
	C228.016235,51.841438 229.474045,50.384075 230.952545,49.576630 
	C229.525406,48.717899 228.122452,47.167995 226.667053,47.117054 
	C219.383362,46.862133 212.085068,47.058910 204.794037,46.952065 
	C203.266403,46.929676 201.747711,46.297611 200.120560,45.564468 
	C209.708969,45.140781 219.401703,45.099121 229.743011,45.343124 
	C231.198441,46.412426 232.005310,47.196060 232.812180,47.979698 
	C232.855606,48.739929 232.899017,49.500160 232.736282,50.731735 
	C232.630753,51.465992 232.731384,51.728909 232.832031,51.991821 
	C232.870071,52.157471 232.908096,52.323116 232.626862,52.756939 
	C231.877716,53.285980 231.447830,53.546841 231.017944,53.807701 
	C222.668167,53.867310 214.318375,53.926918 205.506287,54.047043 
z"/>
<path fill="#FEFEFE" opacity="1.000000" stroke="none" 
	d="
M205.497559,73.050652 
	C206.439240,72.410210 207.821960,71.151466 209.251175,71.096268 
	C215.203903,70.866356 221.174728,71.115082 227.128906,70.904793 
	C228.391724,70.860184 229.612534,69.625221 230.852692,68.938698 
	C229.571609,68.292999 228.316025,67.158936 227.004807,67.090462 
	C222.545746,66.857613 218.063248,67.105309 213.598038,66.941612 
	C212.113892,66.887192 210.654938,66.145424 209.114685,65.311615 
	C215.728958,64.958374 222.413025,65.011406 229.771088,65.349663 
	C231.233978,65.762184 232.022903,65.889473 232.811813,66.016769 
	C232.860352,67.731659 232.908890,69.446556 232.714630,71.673187 
	C232.255737,72.339325 232.101334,72.540955 232.008621,72.789833 
	C223.325745,72.855171 214.642853,72.920517 205.497559,73.050652 
z"/>
<path fill="#FCFCFC" opacity="1.000000" stroke="none" 
	d="
M111.975540,113.679848 
	C111.627213,113.087143 111.023102,111.552437 111.291954,111.380173 
	C119.057777,106.404427 118.250389,98.715683 118.040283,91.090652 
	C117.844574,83.988136 117.937836,76.875061 118.046875,69.768822 
	C118.070221,68.247383 118.708595,66.735390 119.447060,65.115929 
	C119.877861,77.321190 119.886894,89.629883 119.989662,101.937790 
	C120.037323,107.645897 114.983459,109.726913 111.975540,113.679848 
z"/>
<path fill="#FEFEFE" opacity="1.000000" stroke="none" 
	d="
M70.557259,17.121328 
	C71.681152,18.430656 72.864143,19.656464 72.906822,20.920763 
	C73.107895,26.877655 72.996391,32.845097 71.999390,38.820004 
	C71.999390,35.501217 71.999390,32.182430 71.999390,28.863642 
	C71.999390,18.998938 71.999390,18.998913 61.915855,18.998940 
	C52.589684,18.998964 43.263515,18.999052 33.468674,18.999557 
	C33.000000,19.000000 33.000610,18.999960 33.000610,18.999960 
	C33.006618,18.527403 33.012630,18.054844 33.029373,17.227985 
	C45.390400,16.934305 57.740692,16.994925 70.557259,17.121328 
z"/>
<path fill="#FFFFFF" opacity="1.000000" stroke="none" 
	d="
M66.429176,120.855682 
	C65.400902,120.343681 64.838768,119.904984 64.139008,119.233955 
	C64.001389,112.395592 64.001389,105.789558 64.001389,99.183525 
	C64.334412,99.177589 64.667442,99.171654 65.000465,99.165726 
	C65.000465,104.306343 65.193192,109.456688 64.934380,114.584244 
	C64.754486,118.148499 66.106049,119.128853 69.517517,119.064545 
	C79.305977,118.880035 89.100868,118.941116 98.891441,119.057426 
	C100.537231,119.076988 102.174042,119.852768 103.886429,120.684853 
	C91.603676,121.036697 79.249496,120.982834 66.429176,120.855682 
z"/>
<path fill="#F9F9F9" opacity="1.000000" stroke="none" 
	d="
M477.995117,91.000610 
	C481.444794,87.416267 481.156464,82.931229 480.994965,78.484909 
	C480.844879,74.353668 482.183014,69.790771 477.344086,67.035347 
	C476.796753,66.723694 477.127533,64.870010 477.028534,63.448341 
	C481.654724,64.931190 483.971222,68.666367 483.862823,73.270439 
	C483.726685,79.053902 482.746124,84.827179 481.915070,90.573761 
	C481.795197,91.402702 480.475739,92.058151 479.334473,92.598633 
	C478.636749,91.935776 478.315948,91.468185 477.995117,91.000610 
z"/>
<path fill="#FFFFFF" opacity="1.000000" stroke="none" 
	d="
M103.722137,121.427231 
	C104.334755,121.031052 104.760979,121.021530 105.506882,121.012939 
	C104.685272,121.675583 103.545929,122.911133 102.402374,122.915031 
	C74.454742,123.010460 46.506657,122.976082 18.558668,122.947929 
	C18.258207,122.947624 17.957975,122.721489 17.656872,121.813889 
	C46.283165,121.813889 74.909454,121.813889 103.722137,121.427231 
z"/>
<path fill="#FFFFFF" opacity="1.000000" stroke="none" 
	d="
M146.130142,86.359261 
	C147.091888,87.403511 147.981308,88.789627 149.400024,91.000610 
	C159.755692,91.000610 170.977875,90.953568 182.198883,91.047142 
	C184.058105,91.062645 185.912201,91.692390 187.875244,92.418365 
	C174.633530,92.843620 161.285263,92.888794 147.367523,92.502785 
	C146.660522,91.858665 146.522980,91.645737 146.385437,91.432816 
	C146.276230,89.855583 146.167023,88.278358 146.130142,86.359261 
z"/>
<path fill="#FFFFFF" opacity="1.000000" stroke="none" 
	d="
M304.873627,79.519272 
	C304.202087,78.475227 303.107300,76.977051 303.080872,75.460281 
	C302.919312,66.186157 303.000092,56.907818 303.000092,46.994709 
	C300.266754,46.994709 298.155487,46.994709 295.605530,46.990486 
	C295.130219,46.820595 295.093597,46.654926 295.288483,46.149307 
	C295.739655,45.649815 295.897705,45.443165 295.994202,45.189415 
	C297.719696,45.146496 299.445221,45.103577 301.780701,45.344948 
	C303.197205,46.413113 304.003784,47.196987 304.810364,47.980862 
	C304.854950,58.339420 304.899567,68.697983 304.873627,79.519272 
z"/>
<path fill="#F4F4F4" opacity="1.000000" stroke="none" 
	d="
M388.067810,47.455502 
	C388.757599,47.814625 389.901642,48.632664 389.909882,49.461990 
	C390.015076,60.050182 389.972168,70.640114 389.897522,81.229111 
	C389.893829,81.752937 389.253265,82.272278 388.524475,82.900955 
	C388.091187,71.312027 388.042694,59.615845 388.067810,47.455502 
z"/>
<path fill="#FFFFFF" opacity="1.000000" stroke="none" 
	d="
M395.487122,93.028137 
	C395.937775,92.385719 396.845795,91.111931 397.770844,91.099426 
	C407.817871,90.963638 417.867737,91.002586 427.916077,91.088020 
	C428.554504,91.093452 429.186340,91.879013 429.893616,92.708023 
	C418.628143,93.070404 407.290283,93.026413 395.487122,93.028137 
z"/>
<path fill="#FFFFFF" opacity="1.000000" stroke="none" 
	d="
M343.480743,92.875328 
	C343.844879,92.210548 344.667023,91.096733 345.501190,91.087677 
	C355.396729,90.980286 365.294189,91.022408 375.190613,91.094154 
	C375.719971,91.097984 376.244843,91.715546 376.877014,92.428635 
	C365.969574,92.853096 354.956940,92.896324 343.480743,92.875328 
z"/>
<path fill="#FEFEFE" opacity="1.000000" stroke="none" 
	d="
M376.520691,45.121872 
	C376.156555,45.788387 375.334503,46.903282 374.500397,46.912338 
	C364.603607,47.019810 354.704956,46.977646 344.807281,46.905785 
	C344.278137,46.901947 343.753479,46.283318 343.121552,45.569435 
	C354.029968,45.144161 365.043549,45.100330 376.520691,45.121872 
z"/>
<path fill="#FFFFFF" opacity="1.000000" stroke="none" 
	d="
M295.115906,91.264099 
	C306.841675,91.002220 318.508850,90.990265 330.653320,90.963654 
	C331.492157,90.992577 331.750336,91.179169 331.482056,91.834358 
	C330.824188,92.266937 330.589447,92.373947 330.354706,92.480949 
	C319.207397,92.630913 308.060089,92.780876 296.356049,92.692322 
	C295.637115,92.246552 295.431915,92.099144 295.183716,92.011604 
	C295.141571,91.845741 295.099457,91.679878 295.115906,91.264099 
z"/>
<path fill="#FFFFFF" opacity="1.000000" stroke="none" 
	d="
M383.877441,84.519211 
	C383.214203,84.157455 382.098267,83.337852 382.088287,82.504974 
	C381.977478,73.273170 382.021698,64.039162 382.094849,54.806301 
	C382.099060,54.277462 382.717438,53.753483 383.431519,53.122471 
	C383.854797,63.363537 383.896545,73.709373 383.877441,84.519211 
z"/>
<path fill="#FEFEFE" opacity="1.000000" stroke="none" 
	d="
M193.106628,54.478485 
	C193.777466,54.837116 194.899902,55.652615 194.911011,56.482971 
	C195.025635,65.056152 194.978455,73.631889 194.902786,82.206268 
	C194.898132,82.733452 194.274002,83.255173 193.554871,83.882050 
	C193.128555,74.303864 193.085434,64.623055 193.106628,54.478485 
z"/>
<path fill="#F9F9F9" opacity="1.000000" stroke="none" 
	d="
M331.382812,85.968529 
	C321.484039,86.054901 311.816986,86.054901 301.416229,86.054901 
	C302.547729,85.242226 303.118347,84.832405 303.870544,84.156158 
	C312.400513,83.941406 320.748871,83.993088 329.726562,84.317169 
	C330.851288,84.728653 331.346680,84.867744 331.842041,85.006828 
	C332.024414,85.365730 331.948578,85.657501 331.382812,85.968529 
z"/>
<path fill="#FFFFFF" opacity="1.000000" stroke="none" 
	d="
M187.519440,84.140259 
	C186.645966,84.809357 185.320908,85.889435 183.972855,85.918945 
	C176.372055,86.085304 168.765747,85.999268 160.522507,85.999268 
	C161.546890,85.257545 162.115555,84.845787 162.864029,84.167587 
	C171.048294,83.956131 179.052780,84.011124 187.519440,84.140259 
z"/>
<path fill="#FFFFFF" opacity="1.000000" stroke="none" 
	d="
M191.001251,49.116898 
	C191.026291,62.017105 191.050674,74.480270 191.073776,86.943443 
	C191.077087,88.736061 191.074219,90.528687 190.500031,92.302879 
	C190.500031,76.739204 190.500031,61.175526 190.500031,45.611847 
	C190.563583,45.599663 190.627136,45.587482 190.690674,45.575298 
	C190.793854,46.610149 190.897018,47.645004 191.001251,49.116898 
z"/>
<path fill="#FFFFFF" opacity="1.000000" stroke="none" 
	d="
M294.000000,84.892929 
	C294.000000,87.868027 294.000000,90.361649 294.000000,92.855263 
	C293.579285,92.832474 293.158600,92.809685 292.737885,92.786896 
	C292.737885,77.132256 292.737885,61.477619 292.737885,45.822983 
	C293.158600,45.819443 293.579285,45.815903 294.000000,45.812366 
	C294.000000,58.678726 294.000000,71.545082 294.000000,84.892929 
z"/>
<path fill="#FEFEFE" opacity="1.000000" stroke="none" 
	d="
M74.192886,61.657169 
	C82.627914,61.587532 91.062950,61.517895 99.751099,61.728493 
	C99.968903,62.175121 99.933586,62.341511 99.916573,62.762367 
	C98.106720,63.181709 96.278580,63.346573 93.743820,63.750763 
	C87.027817,63.934254 81.018433,63.878422 74.906754,63.449654 
	C74.674309,62.854176 74.544151,62.631634 74.318420,62.232964 
	C74.222839,62.056835 74.192886,61.657169 74.192886,61.657169 
z"/>
<path fill="#CBCBCB" opacity="1.000000" stroke="none" 
	d="
M102.997025,14.997252 
	C108.622108,14.997252 113.747940,14.997252 118.873772,14.997252 
	C118.873726,15.217451 118.873688,15.437651 118.873642,15.657850 
	C104.204506,15.657850 89.535378,15.657850 74.866241,15.657850 
	C74.861053,15.437652 74.855865,15.217452 74.850670,14.997253 
	C84.066376,14.997253 93.282074,14.997253 102.997025,14.997252 
z"/>
<path fill="#FFFFFF" opacity="1.000000" stroke="none" 
	d="
M437.000000,69.998535 
	C437.000000,61.536636 437.000000,53.574333 437.000000,45.612030 
	C437.238983,45.613369 437.477997,45.614708 437.716980,45.616047 
	C437.716980,59.466038 437.716980,73.316032 437.716980,87.166023 
	C437.477997,87.175835 437.238983,87.185646 437.000000,87.195457 
	C437.000000,81.629684 437.000000,76.063911 437.000000,69.998535 
z"/>
<path fill="#FFFFFF" opacity="1.000000" stroke="none" 
	d="
M15.000074,67.798340 
	C15.000074,55.761089 15.000074,44.197487 15.000074,32.633881 
	C15.237039,32.634888 15.474004,32.635895 15.710968,32.636902 
	C15.710968,46.217514 15.710968,59.798126 15.710968,73.378738 
	C15.474004,73.382675 15.237040,73.386612 15.000075,73.390549 
	C15.000075,71.684364 15.000075,69.978180 15.000074,67.798340 
z"/>
<path fill="#FFFFFF" opacity="1.000000" stroke="none" 
	d="
M121.000084,101.655716 
	C121.000053,88.971390 121.000053,76.747185 121.000053,64.522987 
	C121.247719,64.525169 121.495392,64.527359 121.743057,64.529549 
	C121.743057,78.177704 121.743057,91.825867 121.743057,105.474022 
	C121.581383,105.479912 121.419708,105.485809 121.258034,105.491699 
	C121.172058,104.366409 121.086090,103.241119 121.000084,101.655716 
z"/>
<path fill="#FFFFFF" opacity="1.000000" stroke="none" 
	d="
M185.560303,43.999619 
	C172.927155,43.999870 160.745636,43.999870 148.564117,43.999870 
	C148.567123,43.761173 148.570145,43.522480 148.573151,43.283783 
	C161.846634,43.283783 175.120132,43.283783 188.393616,43.283783 
	C188.399445,43.450085 188.405289,43.616390 188.411118,43.782692 
	C187.611389,43.854916 186.811661,43.927139 185.560303,43.999619 
z"/>
<path fill="#CBCBCB" opacity="1.000000" stroke="none" 
	d="
M33.575363,16.103313 
	C33.090351,15.985385 33.062962,15.810853 32.998142,15.373992 
	C46.036289,15.111664 59.111866,15.111664 72.187439,15.111664 
	C72.189781,15.423346 72.192123,15.735027 72.194458,16.046709 
	C59.473969,16.046709 46.753479,16.046709 33.575363,16.103313 
z"/>
<path fill="#FFFFFF" opacity="1.000000" stroke="none" 
	d="
M451.874115,54.319210 
	C452.189484,54.009476 452.368561,54.012100 452.816284,54.020775 
	C455.069763,54.351238 457.050903,54.925617 459.040192,54.955494 
	C466.466187,55.067024 473.894867,55.000061 481.337616,55.859528 
	C472.067230,55.859528 462.796844,55.859528 452.978577,55.859528 
	C452.978577,57.570557 452.978577,58.826920 452.917267,60.521454 
	C452.483276,58.850269 452.110565,56.740917 451.874115,54.319210 
z"/>
<path fill="#FDFDFD" opacity="1.000000" stroke="none" 
	d="
M445.877747,44.582207 
	C446.180725,45.581993 446.318085,46.272324 446.725891,46.981178 
	C443.720154,49.112640 442.722839,52.172031 442.958740,55.946758 
	C443.163147,59.217815 443.001221,62.511772 442.283752,65.814529 
	C442.039185,60.720985 441.794617,55.627441 441.237854,50.249805 
	C442.521149,48.068062 444.116638,46.170410 445.877747,44.582207 
z"/>
<path fill="#FFFFFF" opacity="1.000000" stroke="none" 
	d="
M400.011536,81.522156 
	C400.020172,81.990028 399.597229,81.982628 399.385742,81.984573 
	C399.174225,69.891098 399.174225,57.795666 399.174225,45.700237 
	C399.450439,45.697437 399.726685,45.694641 400.002899,45.691841 
	C400.002899,57.479321 400.002899,69.266800 400.011536,81.522156 
z"/>
<path fill="#000000" opacity="1.000000" stroke="none" 
	d="
M385.893890,54.112358 
	C385.987610,52.012634 386.081329,49.912907 386.175049,47.813183 
	C386.347839,47.818825 386.520660,47.824471 386.693451,47.830112 
	C386.693451,59.730511 386.693451,71.630905 386.345520,83.290756 
	C385.963043,73.404266 385.928467,63.758312 385.893890,54.112358 
z"/>
<path fill="#FFFFFF" opacity="1.000000" stroke="none" 
	d="
M306.000000,56.039146 
	C306.000000,52.246777 306.000000,48.947094 306.000000,45.647415 
	C306.235504,45.649162 306.471039,45.650913 306.706543,45.652660 
	C306.706543,57.237808 306.706543,68.822952 306.706543,80.408096 
	C306.471039,80.410934 306.235504,80.413780 306.000000,80.416618 
	C306.000000,72.455025 306.000000,64.493431 306.000000,56.039146 
z"/>
<path fill="#FFFFFF" opacity="1.000000" stroke="none" 
	d="
M333.471069,85.567154 
	C333.429932,80.203697 333.840637,75.128090 333.966766,70.045418 
	C334.110382,64.258179 334.000000,58.464630 334.867188,52.671066 
	C334.867188,63.482658 334.874420,74.294289 334.822510,85.105629 
	C334.821320,85.356018 334.153900,85.603203 333.471069,85.567154 
z"/>
<path fill="#F9F9F9" opacity="1.000000" stroke="none" 
	d="
M341.887756,43.974445 
	C344.481995,43.656292 347.054321,43.062939 349.634369,43.027218 
	C358.415497,42.905632 367.199341,42.980724 375.987427,43.788815 
	C364.925293,43.788815 353.863129,43.788815 342.315063,43.854008 
	C341.829132,43.919201 341.869385,43.954811 341.887756,43.974445 
z"/>
<path fill="#FFFFFF" opacity="1.000000" stroke="none" 
	d="
M473.888184,43.000061 
	C476.677582,43.000061 478.984802,43.000061 481.292053,43.000061 
	C481.288391,43.228447 481.284760,43.456829 481.281128,43.685215 
	C470.032196,43.685215 458.783295,43.685215 447.534393,43.685215 
	C447.530792,43.456829 447.527191,43.228447 447.523590,43.000061 
	C456.151062,43.000061 464.778564,43.000061 473.888184,43.000061 
z"/>
<path fill="#FFFFFF" opacity="1.000000" stroke="none" 
	d="
M216.994659,43.999939 
	C210.867752,43.999939 205.239014,43.999939 199.610291,43.999939 
	C199.610733,43.760601 199.611176,43.521267 199.611618,43.281929 
	C210.131241,43.281929 220.650879,43.281929 231.170502,43.281929 
	C231.182175,43.521267 231.193863,43.760601 231.205536,43.999939 
	C226.634644,43.999939 222.063751,43.999939 216.994659,43.999939 
z"/>
<path fill="#D5D5D5" opacity="1.000000" stroke="none" 
	d="
M470.434692,81.987015 
	C471.326447,82.192657 471.756714,82.408257 472.186951,82.623856 
	C471.934479,82.740837 471.682007,82.857826 471.162903,82.998901 
	C461.506989,83.022980 452.117706,83.022980 442.728455,83.022980 
	C442.725464,82.680977 442.722443,82.338966 442.719452,81.996964 
	C451.804016,81.996964 460.888611,81.996964 470.434692,81.987015 
z"/>
<path fill="#FCFCFC" opacity="1.000000" stroke="none" 
	d="
M115.525635,64.121841 
	C115.322845,64.780273 114.622063,65.919182 114.001328,65.877098 
	C109.600334,65.578789 105.215729,65.038567 100.929932,64.247169 
	C105.710876,63.964497 110.387779,64.010094 115.525635,64.121841 
z"/>
<path fill="#FFFFFF" opacity="1.000000" stroke="none" 
	d="
M385.521423,54.316650 
	C385.928467,63.758312 385.963043,73.404266 385.981812,83.517090 
	C385.643982,82.311340 385.055511,80.640381 385.045197,78.965836 
	C384.994904,70.818062 385.099304,62.669338 385.521423,54.316650 
z"/>
<path fill="#FFFFFF" opacity="1.000000" stroke="none" 
	d="
M205.503922,75.074570 
	C205.038193,74.919907 205.035538,74.709915 205.036804,74.184937 
	C214.129333,73.869949 223.217941,73.869949 232.306564,73.869949 
	C232.309265,74.253044 232.311966,74.636147 232.314682,75.019241 
	C223.532120,75.019241 214.749557,75.019241 205.503922,75.074570 
z"/>
<path fill="#FFFFFF" opacity="1.000000" stroke="none" 
	d="
M205.493484,56.052277 
	C205.028427,55.887554 205.028763,55.684032 205.034943,55.175285 
	C214.130951,54.870056 223.221085,54.870056 232.311234,54.870056 
	C232.313828,55.251198 232.316422,55.632339 232.319016,56.013481 
	C223.532303,56.013481 214.745590,56.013481 205.493484,56.052277 
z"/>
<path fill="#FFFFFF" opacity="1.000000" stroke="none" 
	d="
M209.277145,64.564926 
	C208.545303,65.225502 208.005249,65.502426 207.177704,65.877197 
	C207.936462,64.985199 208.954865,63.174305 210.033463,63.137726 
	C217.452850,62.886131 224.884811,63.005486 232.322144,64.181274 
	C224.704407,64.181274 217.086685,64.181274 209.277145,64.564926 
z"/>
<path fill="#D5D5D5" opacity="1.000000" stroke="none" 
	d="
M205.535400,83.075241 
	C205.060928,82.917229 205.047562,82.708588 205.054199,82.186974 
	C213.846161,81.873993 222.618118,81.873993 231.390076,81.873993 
	C231.389969,82.257530 231.389877,82.641068 231.389771,83.024605 
	C222.925354,83.024605 214.460922,83.024605 205.535400,83.075241 
z"/>
<path fill="#D5D5D5" opacity="1.000000" stroke="none" 
	d="
M401.104919,83.023056 
	C400.815369,82.814674 400.525848,82.606300 400.161621,82.135651 
	C408.427063,81.927666 416.767151,81.981964 425.565796,82.264771 
	C426.024292,82.493294 426.044312,82.828346 425.576721,82.894859 
	C417.107727,82.981934 409.106323,83.002495 401.104919,83.023056 
z"/>
<path fill="#FFFFFF" opacity="1.000000" stroke="none" 
	d="
M15.999926,107.026985 
	C15.999926,111.816574 15.999926,116.115158 15.999926,120.413734 
	C15.759012,120.410782 15.518098,120.407837 15.277184,120.404884 
	C15.277184,112.539352 15.277184,104.673828 15.277184,96.808296 
	C15.518098,96.793663 15.759012,96.779037 15.999926,96.764412 
	C15.999926,100.021599 15.999926,103.278793 15.999926,107.026985 
z"/>
<path fill="#FEFEFE" opacity="1.000000" stroke="none" 
	d="
M170.505127,55.096268 
	C170.828415,55.477207 170.612091,55.713009 170.093170,55.971729 
	C162.459412,56.066467 155.049942,56.066467 147.640488,56.066467 
	C147.637390,55.718628 147.634293,55.370785 147.631195,55.022945 
	C155.102066,55.022945 162.572937,55.022945 170.505127,55.096268 
z"/>
<path fill="#D5D5D5" opacity="1.000000" stroke="none" 
	d="
M165.394196,82.840302 
	C164.930206,82.738937 164.918732,82.372902 164.954803,82.193382 
	C172.413696,82.013863 179.836533,82.013863 187.259354,82.013863 
	C187.262665,82.323128 187.265976,82.632393 187.269287,82.941658 
	C180.132263,82.941658 172.995224,82.941658 165.394196,82.840302 
z"/>
<path fill="#FFFFFF" opacity="1.000000" stroke="none" 
	d="
M453.509827,63.085617 
	C453.043213,62.932705 453.038208,62.716312 453.040649,62.175316 
	C459.801208,61.850716 466.554321,61.850716 473.307434,61.850716 
	C473.311279,62.241188 473.315125,62.631664 473.318970,63.022137 
	C466.869781,63.022137 460.420593,63.022137 453.509827,63.085617 
z"/>
<path fill="#F4F4F4" opacity="1.000000" stroke="none" 
	d="
M477.747253,91.000305 
	C478.315948,91.468185 478.636749,91.935776 478.978760,92.701462 
	C477.947418,93.778923 476.894836,94.558296 475.842224,95.337669 
	C475.633881,95.007942 475.425507,94.678207 475.217133,94.348473 
	C475.711731,94.130310 476.206329,93.912140 476.828522,93.399399 
	C476.968811,92.636925 476.981506,92.169029 476.998932,91.350113 
	C477.003662,90.999084 477.499390,91.000015 477.747253,91.000305 
z"/>
<path fill="#FAFAFA" opacity="1.000000" stroke="none" 
	d="
M186.970352,54.692162 
	C186.343277,54.540516 185.858154,54.091183 185.373016,53.641846 
	C186.062881,53.120575 186.752747,52.599304 187.775909,52.069847 
	C187.776917,52.839264 187.444611,53.616867 186.970352,54.692162 
z"/>
<path fill="#F4F4F4" opacity="1.000000" stroke="none" 
	d="
M304.889221,47.599468 
	C304.003784,47.196987 303.197205,46.413113 302.208069,45.408966 
	C303.006348,45.865158 303.987244,46.541615 304.889221,47.599468 
z"/>
<path fill="#F4F4F4" opacity="1.000000" stroke="none" 
	d="
M232.891632,47.598953 
	C232.005310,47.196060 231.198441,46.412426 230.209229,45.408321 
	C231.008301,45.864639 231.989700,46.541428 232.891632,47.598953 
z"/>
<path fill="#F4F4F4" opacity="1.000000" stroke="none" 
	d="
M17.225582,120.326210 
	C17.957508,120.114357 18.752985,120.240517 19.758341,120.587296 
	C19.075193,120.760025 18.182163,120.712128 17.225582,120.326210 
z"/>
<path fill="#F4F4F4" opacity="1.000000" stroke="none" 
	d="
M443.638794,84.112808 
	C443.245117,84.462234 442.512634,84.732941 441.471191,85.008698 
	C441.874817,84.687202 442.587433,84.360649 443.638794,84.112808 
z"/>
<path fill="#F4F4F4" opacity="1.000000" stroke="none" 
	d="
M230.358673,92.886047 
	C230.752457,92.536354 231.482864,92.265434 232.521423,91.989677 
	C232.118149,92.311508 231.406723,92.638168 230.358673,92.886047 
z"/>
<path fill="#F4F4F4" opacity="1.000000" stroke="none" 
	d="
M441.225159,92.325455 
	C441.961609,92.113586 442.757324,92.241806 443.762543,92.591370 
	C443.076172,92.763649 442.180328,92.714592 441.225159,92.325455 
z"/>
<path fill="#F4F4F4" opacity="1.000000" stroke="none" 
	d="
M119.771530,17.672989 
	C119.035522,17.883602 118.240974,17.754753 117.238068,17.403904 
	C117.924141,17.232449 118.818558,17.282988 119.771530,17.672989 
z"/>
<path fill="#F4F4F4" opacity="1.000000" stroke="none" 
	d="
M232.767578,84.675934 
	C232.032089,84.887993 231.239304,84.760475 230.237640,84.412590 
	C230.922607,84.240265 231.816437,84.288315 232.767578,84.675934 
z"/>
<path fill="#F4F4F4" opacity="1.000000" stroke="none" 
	d="
M479.363800,53.890129 
	C479.757996,53.543045 480.489166,53.270775 481.529297,52.994724 
	C481.125763,53.315609 480.413269,53.640270 479.363800,53.890129 
z"/>
<path fill="#F4F4F4" opacity="1.000000" stroke="none" 
	d="
M232.749069,65.681412 
	C232.022903,65.889473 231.233978,65.762184 230.237244,65.415482 
	C230.915070,65.246071 231.800690,65.296066 232.749069,65.681412 
z"/>
<path fill="#F4F4F4" opacity="1.000000" stroke="none" 
	d="
M147.240234,53.324654 
	C147.964661,53.117760 148.757553,53.244911 149.758316,53.593529 
	C149.080353,53.762894 148.194519,53.710800 147.240234,53.324654 
z"/>
<path fill="#F4F4F4" opacity="1.000000" stroke="none" 
	d="
M331.812073,84.698975 
	C331.346680,84.867744 330.851288,84.728653 330.192688,84.384895 
	C330.613647,84.250526 331.197876,84.320816 331.812073,84.698975 
z"/>
<path fill="#F4F4F4" opacity="1.000000" stroke="none" 
	d="
M231.320770,53.881371 
	C231.447830,53.546841 231.877716,53.285980 232.569305,53.005287 
	C232.428543,53.308651 232.026077,53.631847 231.320770,53.881371 
z"/>
<path fill="#FEFEFE" opacity="1.000000" stroke="none" 
	d="
M168.714905,57.950928 
	C168.908737,58.173996 168.772400,58.460510 168.344055,58.835854 
	C168.253311,58.664261 168.364197,58.360828 168.714905,57.950928 
z"/>
<path fill="#F9F9F9" opacity="1.000000" stroke="none" 
	d="
M330.558533,92.673645 
	C330.589447,92.373947 330.824188,92.266937 331.437195,92.078163 
	C331.464417,92.286377 331.113403,92.576363 330.558533,92.673645 
z"/>
<path fill="#F9F9F9" opacity="1.000000" stroke="none" 
	d="
M295.158264,92.260422 
	C295.431915,92.099144 295.637115,92.246552 295.891144,92.621902 
	C295.699585,92.696404 295.416199,92.602821 295.158264,92.260422 
z"/>
<path fill="#F4F4F4" opacity="1.000000" stroke="none" 
	d="
M146.229187,91.652481 
	C146.522980,91.645737 146.660522,91.858665 146.903717,92.436859 
	C146.697220,92.492126 146.385071,92.182137 146.229187,91.652481 
z"/>
<path fill="#F4F4F4" opacity="1.000000" stroke="none" 
	d="
M232.256119,72.823524 
	C232.101334,72.540955 232.255737,72.339325 232.643280,72.096878 
	C232.977783,72.389450 232.874069,72.672249 232.256119,72.823524 
z"/>
<path fill="#F4F4F4" opacity="1.000000" stroke="none" 
	d="
M232.887131,51.746040 
	C232.731384,51.728909 232.630753,51.465992 232.671478,51.108238 
	C232.855988,51.175690 232.899109,51.337975 232.887131,51.746040 
z"/>
<path fill="#F4F4F4" opacity="1.000000" stroke="none" 
	d="
M426.044312,82.828346 
	C426.044312,82.828346 426.024292,82.493294 426.033386,82.326881 
	C426.042480,82.160469 426.511444,82.024971 426.755127,82.010818 
	C426.994812,82.185081 426.990784,82.373505 426.740173,82.772354 
	C426.493591,82.982765 426.044312,82.828346 426.044312,82.828346 
z"/>
<path fill="#FAFAFA" opacity="1.000000" stroke="none" 
	d="
M188.301849,51.996895 
	C188.046600,51.884624 188.035828,51.679211 188.037689,51.165260 
	C188.215668,51.205738 188.380997,51.554741 188.301849,51.996895 
z"/>
<path fill="#F4F4F4" opacity="1.000000" stroke="none" 
	d="
M295.739563,45.154877 
	C295.897705,45.443165 295.739655,45.649815 295.345398,45.901245 
	C295.275482,45.702198 295.380219,45.411270 295.739563,45.154877 
z"/>
<path fill="#4C6971" opacity="1.000000" stroke="none" 
	d="
M74.130127,61.240189 
	C74.192886,61.657169 74.222839,62.056835 74.152687,62.452393 
	C74.391373,63.172829 74.700211,63.497711 75.009048,63.822590 
	C81.018433,63.878422 87.027817,63.934254 93.499146,64.053185 
	C92.658142,65.893509 91.515396,67.820190 90.022697,69.420433 
	C85.222244,74.566750 80.292625,79.592583 74.916336,84.853134 
	C71.905098,87.346748 69.390350,89.652115 66.875610,91.957489 
	C65.662399,92.983925 64.449188,94.010368 62.973743,95.258675 
	C62.973743,89.205162 62.973743,83.021027 62.954468,76.163559 
	C62.897991,75.324722 62.860790,75.159225 62.852081,74.739136 
	C62.590313,74.385963 62.300045,74.287369 61.545033,74.123764 
	C55.068275,74.003899 49.056263,73.949059 43.044250,73.894211 
	C47.375435,69.091095 51.674538,64.258331 56.063953,59.509041 
	C56.978741,58.519253 58.227509,57.838131 59.938705,56.946777 
	C60.755028,56.600594 60.955002,56.322388 61.154980,56.044186 
	C62.704491,54.609165 64.253998,53.174149 66.222916,51.297668 
	C68.144897,49.253582 69.647491,47.650948 71.150085,46.048317 
	C71.150085,46.048317 71.547058,46.071125 71.769096,46.561810 
	C71.991135,52.461288 71.991135,57.870079 71.991135,63.278873 
	C72.266617,63.271416 72.542091,63.263954 72.817574,63.256496 
	C72.817574,56.521099 72.817574,49.785698 72.817566,43.050301 
	C72.985680,42.451668 73.153793,41.853035 73.616241,41.145824 
	C73.957214,41.473099 74.003845,41.908951 74.117889,42.666954 
	C74.145996,48.933807 74.106682,54.878510 74.130127,61.240189 
z"/>
<path fill="#FEFEFE" opacity="1.000000" stroke="none" 
	d="
M42.864777,74.161255 
	C49.056263,73.949059 55.068275,74.003899 61.638741,74.296288 
	C62.361694,74.747452 62.570496,74.900749 62.823589,74.993729 
	C62.860790,75.159225 62.897991,75.324722 62.880661,75.738754 
	C55.602322,75.987282 48.378513,75.987282 40.525017,75.987282 
	C41.547562,75.249352 42.116432,74.838821 42.864777,74.161255 
z"/>
<path fill="#F9F9F9" opacity="1.000000" stroke="none" 
	d="
M67.269310,91.969986 
	C69.390350,89.652115 71.905098,87.346748 74.732330,85.036942 
	C73.537506,88.361694 72.495392,92.184967 67.269310,91.969986 
z"/>
<path fill="#FFFFFF" opacity="1.000000" stroke="none" 
	d="
M72.585403,43.286842 
	C72.817574,49.785698 72.817574,56.521099 72.817574,63.256496 
	C72.542091,63.263954 72.266617,63.271416 71.991135,63.278873 
	C71.991135,57.870079 71.991135,52.461288 71.965256,46.594181 
	C72.077332,45.265041 72.215286,44.394215 72.585403,43.286842 
z"/>
<path fill="#FFFFFF" opacity="1.000000" stroke="none" 
	d="
M70.749817,46.036201 
	C69.647491,47.650948 68.144897,49.253582 66.345474,51.002979 
	C66.039055,48.230190 66.565529,45.760437 70.749817,46.036201 
z"/>
<path fill="#FFFFFF" opacity="1.000000" stroke="none" 
	d="
M60.924030,56.113358 
	C60.955002,56.322388 60.755028,56.600594 60.292946,56.867661 
	C60.162350,56.544170 60.383099,56.319504 60.924030,56.113358 
z"/>
<path fill="#FAFAFA" opacity="1.000000" stroke="none" 
	d="
M33.000015,18.999722 
	C32.906960,19.035383 32.813881,19.071323 32.860710,19.053612 
	C33.000610,18.999960 33.000000,19.000000 33.000015,18.999722 
z"/>
<path fill="#FCFCFC" opacity="1.000000" stroke="none" 
	d="
M97.449089,65.533333 
	C97.414833,65.476616 97.483345,65.590050 97.449089,65.533333 
z"/>
<path fill="#4C6971" opacity="1.000000" stroke="none" 
	d="
M346.906097,54.047913 
	C346.934784,54.217472 346.963470,54.387035 347.019348,55.259308 
	C347.046539,64.092316 347.046539,72.222610 347.046539,80.352905 
	C347.382782,80.350204 347.718994,80.347504 348.055237,80.344795 
	C348.055237,72.267426 348.055237,64.190056 348.055237,56.112690 
	C355.686066,56.086926 363.316925,56.061165 371.462830,56.501911 
	C371.961182,65.276443 371.944458,73.584465 371.465454,81.935753 
	C362.704254,81.978172 354.405334,81.977318 346.106415,81.976471 
	C346.058258,81.530258 346.010101,81.084038 345.954773,79.847397 
	C345.990265,70.716454 346.032959,62.375942 346.075623,54.035431 
	C346.075653,54.035431 346.008636,54.007893 346.238861,54.006409 
	C346.469086,54.004921 346.906097,54.047913 346.906097,54.047913 
z"/>
<path fill="#FEFEFE" opacity="1.000000" stroke="none" 
	d="
M373.914612,54.034580 
	C374.602966,54.792393 375.878815,55.541821 375.889801,56.309311 
	C376.013458,64.970299 375.961670,73.634232 375.877930,82.296608 
	C375.872955,82.812302 375.193756,83.321487 374.416748,83.923790 
	C374.005157,84.013878 373.964142,83.963997 373.993835,83.498665 
	C373.987183,73.367081 373.950897,63.700832 373.914612,54.034580 
z"/>
<path fill="#FFFFFF" opacity="1.000000" stroke="none" 
	d="
M374.026306,84.038284 
	C372.732269,84.708244 371.427490,85.887009 370.100281,85.912857 
	C361.457123,86.081230 352.809113,85.999352 343.545654,85.999352 
	C344.545776,85.262886 345.114349,84.844200 346.322144,84.220917 
	C355.283295,84.002060 363.605225,83.987808 372.214111,83.976295 
	C372.692352,83.977058 372.883636,83.975075 373.297424,83.990517 
	C373.519928,84.007935 373.964142,83.963997 373.964142,83.963997 
	C373.964142,83.963997 374.005157,84.013878 374.026306,84.038284 
z"/>
<path fill="#FFFFFF" opacity="1.000000" stroke="none" 
	d="
M345.671509,54.109596 
	C346.032959,62.375942 345.990265,70.716454 345.877197,79.519745 
	C345.207550,79.149384 344.104126,78.325653 344.088379,77.481606 
	C343.955444,70.364304 343.989258,63.242889 344.081451,56.124115 
	C344.089874,55.472317 344.854095,54.830307 345.671509,54.109596 
z"/>
<path fill="#FFFFFF" opacity="1.000000" stroke="none" 
	d="
M347.295044,53.876122 
	C346.906097,54.047913 346.469086,54.004921 346.252350,54.040016 
	C347.126495,53.384312 348.204620,52.119534 349.310333,52.094879 
	C357.098846,51.921223 364.893036,52.002712 372.717377,52.999237 
	C367.823578,52.999237 362.927734,52.912243 358.036743,53.028790 
	C354.582428,53.111095 351.134705,53.469299 347.295044,53.876122 
z"/>
<path fill="#4C6971" opacity="1.000000" stroke="none" 
	d="
M373.993835,83.498665 
	C373.964142,83.963997 373.519928,84.007935 373.257446,83.525131 
	C372.939209,74.032585 372.883423,65.022842 372.827637,56.013103 
	C372.996674,55.424397 373.165771,54.835690 373.624756,54.140781 
	C373.950897,63.700832 373.987183,73.367081 373.993835,83.498665 
z"/>
<path fill="#D5D5D5" opacity="1.000000" stroke="none" 
	d="
M345.828583,81.998383 
	C354.405334,81.977318 362.704254,81.978172 371.485901,82.239761 
	C371.955200,82.703178 371.941742,82.905861 371.466278,83.064835 
	C362.709686,83.023041 354.415100,83.024933 346.120483,83.026825 
	C345.666992,82.812469 345.213501,82.598122 344.760010,82.383789 
	C345.023590,82.262627 345.287170,82.141457 345.828583,81.998383 
z"/>
<path fill="#FEFEFE" opacity="1.000000" stroke="none" 
	d="
M371.928253,83.108536 
	C371.941742,82.905861 371.955200,82.703178 371.948181,82.196495 
	C371.944458,73.584465 371.961182,65.276443 371.923218,56.505424 
	C371.868500,56.042427 372.348145,56.031239 372.587891,56.022171 
	C372.883423,65.022842 372.939209,74.032585 373.034973,83.507713 
	C372.883636,83.975075 372.692352,83.977058 372.232056,83.760071 
	C371.963074,83.541092 371.928253,83.108536 371.928253,83.108536 
z"/>
<path fill="#4C6971" opacity="1.000000" stroke="none" 
	d="
M371.466278,83.064835 
	C371.928253,83.108536 371.963074,83.541092 371.945129,83.757324 
	C363.605225,83.987808 355.283295,84.002060 346.498901,83.952835 
	C346.036438,83.889351 346.057312,83.456024 346.088898,83.241425 
	C354.415100,83.024933 362.709686,83.023041 371.466278,83.064835 
z"/>
<path fill="#FFFFFF" opacity="1.000000" stroke="none" 
	d="
M347.960205,55.894722 
	C348.055237,64.190056 348.055237,72.267426 348.055237,80.344795 
	C347.718994,80.347504 347.382782,80.350204 347.046539,80.352905 
	C347.046539,72.222610 347.046539,64.092316 347.112244,55.499981 
	C347.475311,55.177418 347.704407,55.390354 347.960205,55.894722 
z"/>
<path fill="#FFFFFF" opacity="1.000000" stroke="none" 
	d="
M202.001221,64.066063 
	C202.001221,70.638145 202.001221,76.722023 202.001221,82.805901 
	C201.773544,82.805809 201.545853,82.805710 201.318176,82.805618 
	C201.318176,73.602905 201.318176,64.400192 201.318176,55.197475 
	C201.545853,55.188744 201.773544,55.180008 202.001221,55.171276 
	C202.001221,57.973473 202.001221,60.775665 202.001221,64.066063 
z"/>
<path fill="#FFFFFF" opacity="1.000000" stroke="none" 
	d="
M426.917816,83.968460 
	C427.096954,83.975769 427.276093,83.983078 427.723938,83.997673 
	C427.662415,84.670197 427.339203,85.912277 427.000916,85.916382 
	C418.257324,86.022560 409.512146,86.000839 400.767731,85.935074 
	C400.748779,85.934937 400.737213,84.956917 401.341858,84.225754 
	C410.280304,84.000053 418.599060,83.984261 426.917816,83.968460 
z"/>
<path fill="#4C6971" opacity="1.000000" stroke="none" 
	d="
M426.935822,83.758194 
	C418.599060,83.984261 410.280304,84.000053 401.499176,83.951965 
	C401.036804,83.888092 401.054565,83.454285 401.079742,83.238678 
	C409.106323,83.002495 417.107727,82.981934 425.576721,82.894859 
	C426.044312,82.828346 426.493591,82.982765 426.720093,83.054337 
	C426.946594,83.125908 426.953827,83.547920 426.935822,83.758194 
z"/>
<path fill="#F4F4F4" opacity="1.000000" stroke="none" 
	d="
M74.906754,63.449654 
	C74.700211,63.497711 74.391373,63.172829 74.248268,62.628521 
	C74.544151,62.631634 74.674309,62.854176 74.906754,63.449654 
z"/>
<path fill="#F4F4F4" opacity="1.000000" stroke="none" 
	d="
M62.852081,74.739136 
	C62.570496,74.900749 62.361694,74.747452 62.103485,74.361298 
	C62.300045,74.287369 62.590313,74.385963 62.852081,74.739136 
z"/>
</svg>