<svg id="zoom-in" xmlns="http://www.w3.org/2000/svg" width="24.162" height="24.162" viewBox="0 0 24.162 24.162">
  <path id="Path_3" data-name="Path 3" d="M23.836,22.414l-6-6a10.07,10.07,0,1,0-1.422,1.422l6,6a1.005,1.005,0,1,0,1.422-1.422ZM10.054,18.1A8.043,8.043,0,1,1,18.1,10.054,8.043,8.043,0,0,1,10.054,18.1Z" transform="translate(0.032 0.032)"/>
  <path id="Path_4" data-name="Path 4" d="M13.038,9.016H11.027V7.005a1.005,1.005,0,1,0-2.011,0V9.016H7.005a1.005,1.005,0,1,0,0,2.011H9.016v2.011a1.005,1.005,0,1,0,2.011,0V11.027h2.011a1.005,1.005,0,1,0,0-2.011Z" transform="translate(0.065 0.065)"/>
</svg>
